<?xml version="1.0" encoding="UTF-8" standalone="no"?>
<!-- Created with Inkscape (http://www.inkscape.org/) -->
<svg
   xmlns:svg="http://www.w3.org/2000/svg"
   xmlns="http://www.w3.org/2000/svg"
   version="1.0"
   width="519.23535"
   height="185.02618"
   id="svg2456">
  <defs
     id="defs2458" />
  <g
     transform="translate(25.331964,61.526121)"
     id="layer1">
    <path
       d="M 74.414171,-58.497697 L 74.414171,5.7797962 C 74.414171,20.48341 73.806659,35.036288 62.432941,46.099398 C 52.886326,55.499844 37.881241,58.834308 24.543388,58.834308 C 11.200966,58.834308 -3.8041196,55.499844 -13.355302,46.099398 C -24.724452,35.036288 -25.331964,20.48341 -25.331964,5.7797962 L -25.331964,-58.49313 L 4.3767354,-58.49313 L 4.3767354,1.6870848 C 4.3767354,16.541435 5.4364553,32.761544 24.543388,32.761544 C 43.641184,32.761544 44.700904,16.541435 44.700904,1.6870848 L 44.700904,-58.49313 L 74.414171,-58.497697"
       id="path31"
       style="fill:#ed1c24;fill-opacity:1;fill-rule:nonzero;stroke:none" />
    <path
       d="M 157.9402,-29.09047 C 152.4863,-33.635389 145.50676,-36.663813 138.23489,-36.663813 C 132.77185,-36.663813 125.49998,-33.484653 125.49998,-27.117198 C 125.49998,-20.448271 133.5301,-17.867488 138.6871,-16.200256 L 146.26501,-13.93008 C 162.18365,-9.2298573 174.46178,-1.1951706 174.46178,17.299682 C 174.46178,28.664265 171.73483,40.339455 162.64042,48.068102 C 153.69218,55.65058 141.72009,58.834308 130.2002,58.834308 C 115.79806,58.834308 101.70196,53.978781 90.026768,45.797926 L 102.76168,21.84917 C 110.18885,28.362793 118.97722,33.670528 129.13592,33.670528 C 136.11088,33.670528 143.53806,30.185328 143.53806,22.150642 C 143.53806,13.809915 131.86743,10.932227 125.49998,9.1142597 C 106.85439,3.8065246 94.576256,-1.0444346 94.576256,-23.175223 C 94.576256,-46.370299 111.09784,-61.526121 133.98687,-61.526121 C 145.50676,-61.526121 159.60743,-57.890185 169.76156,-52.130242 L 157.9402,-29.09047"
       id="path33"
       style="fill:#ed1c24;fill-opacity:1;fill-rule:nonzero;stroke:none" />
    <path
       d="M 236.00775,55.805884 L 206.29905,55.805884 L 206.29905,-33.333917 L 181.73822,-33.333917 L 181.73822,-58.497697 L 260.56402,-58.497697 L 260.56402,-33.333917 L 236.00775,-33.333917 L 236.00775,55.805884"
       id="path35"
       style="fill:#ed1c24;fill-opacity:1;fill-rule:nonzero;stroke:none" />
    <path
       d="M 305.58385,-33.333917 L 305.58385,-14.231553 L 339.08379,-14.231553 L 339.08379,10.932227 L 305.58385,10.932227 L 305.58385,30.637536 L 340.90632,30.637536 L 340.90632,55.805884 L 275.87515,55.805884 L 275.87515,-58.497697 L 340.90632,-58.497697 L 340.90632,-33.333917 L 305.58385,-33.333917"
       id="path37"
       style="fill:#ed1c24;fill-opacity:1;fill-rule:nonzero;stroke:none" />
    <path
       d="M 458.84129,55.805884 L 421.85156,55.805884 L 393.8101,11.841211 L 393.50406,11.841211 L 393.50406,55.805884 L 363.79536,55.805884 L 363.79536,-58.497697 L 408.20767,-58.497697 C 430.79524,-58.497697 447.92434,-47.731491 447.92434,-23.330527 C 447.92434,-7.5626255 439.13598,6.0767005 422.91128,8.9589559 L 458.84129,55.805884 z M 393.50406,-7.2565857 L 396.38631,-7.2565857 C 406.08823,-7.2565857 417.00061,-9.0791213 417.00061,-21.507991 C 417.00061,-33.941429 406.08823,-35.754829 396.38631,-35.754829 L 393.50406,-35.754829 L 393.50406,-7.2565857"
       id="path39"
       style="fill:#ed1c24;fill-opacity:1;fill-rule:nonzero;stroke:none" />
    <path
       d="M 458.3434,-43.154597 C 458.3434,-52.979845 466.20908,-60.891203 476.12568,-60.891203 C 485.99204,-60.891203 493.9034,-52.979845 493.9034,-43.154597 C 493.9034,-33.28824 485.99204,-25.376883 476.12568,-25.376883 C 466.20908,-25.376883 458.3434,-33.28824 458.3434,-43.154597 z M 489.26712,-43.154597 C 489.26712,-51.070522 483.7173,-56.254928 476.12568,-56.254928 C 468.39247,-56.254928 462.97967,-51.070522 462.97967,-43.154597 C 462.97967,-35.238673 468.39247,-30.013157 476.12568,-30.013157 C 483.7173,-30.013157 489.26712,-35.238673 489.26712,-43.154597 z M 484.40246,-33.882048 L 479.8073,-33.882048 L 475.66891,-41.74316 L 472.66332,-41.74316 L 472.66332,-33.882048 L 468.75332,-33.882048 L 468.75332,-52.477392 L 477.76094,-52.477392 C 481.71662,-52.477392 484.08272,-51.15731 484.08272,-46.795101 C 484.08272,-43.611373 482.26475,-41.976116 479.89408,-41.74316 L 484.40246,-33.882048 z M 476.89763,-45.292308 C 478.84807,-45.292308 480.53357,-45.292308 480.53357,-47.297554 C 480.53357,-48.932812 478.84807,-48.932812 476.89763,-48.932812 L 472.66332,-48.932812 L 472.66332,-45.292308 L 476.89763,-45.292308"
       id="path41"
       style="fill:#ed1c24;fill-opacity:1;fill-rule:nonzero;stroke:none" />
    <path
       d="M -8.234845,111.64216 L -12.007813,111.64216 L -12.007813,81.275704 L -20.1841,81.275704 L -20.1841,77.772233 L 0.02822957,77.772233 L 0.02822957,81.275704 L -8.234845,81.275704 L -8.234845,111.64216"
       id="path43"
       style="fill:#231f20;fill-opacity:1;fill-rule:nonzero;stroke:none" />
    <path
       d="M 27.028248,74.583938 L 27.028248,93.001139 L 27.115036,93.087927 C 28.599557,91.068977 30.531719,89.945309 33.13534,89.945309 C 38.977503,89.945309 40.324991,94.165918 40.324991,99.108232 L 40.324991,111.64216 L 36.730166,111.64216 L 36.730166,99.738583 C 36.730166,96.321899 36.460668,93.266069 32.281169,93.266069 C 27.338856,93.266069 27.028248,97.852098 27.028248,101.62507 L 27.028248,111.64216 L 23.433423,111.64216 L 23.433423,74.583938 L 27.028248,74.583938"
       id="path45"
       style="fill:#231f20;fill-opacity:1;fill-rule:nonzero;stroke:none" />
    <path
       d="M 71.723761,82.577515 C 71.723761,84.011791 70.554415,85.140027 69.161249,85.140027 C 67.768083,85.140027 66.603304,84.011791 66.603304,82.577515 C 66.603304,81.184349 67.768083,80.015003 69.161249,80.015003 C 70.554415,80.015003 71.723761,81.184349 71.723761,82.577515 z M 70.960946,111.64216 L 67.36612,111.64216 L 67.36612,90.529982 L 70.960946,90.529982 L 70.960946,111.64216"
       id="path47"
       style="fill:#231f20;fill-opacity:1;fill-rule:nonzero;stroke:none" />
    <path
       d="M 101.5969,93.087927 L 101.68369,93.087927 C 103.16821,91.068977 105.10037,89.945309 107.70399,89.945309 C 113.54159,89.945309 114.88908,94.165918 114.88908,99.108232 L 114.88908,111.64216 L 111.29882,111.64216 L 111.29882,99.738583 C 111.29882,96.321899 111.02932,93.266069 106.84982,93.266069 C 101.91208,93.266069 101.5969,97.852098 101.5969,101.62507 L 101.5969,111.64216 L 98.002074,111.64216 L 98.002074,90.529982 L 101.5969,90.529982 L 101.5969,93.087927"
       id="path49"
       style="fill:#231f20;fill-opacity:1;fill-rule:nonzero;stroke:none" />
    <path
       d="M 144.67543,98.345416 L 152.35383,90.529982 L 157.16368,90.529982 L 148.13322,99.514762 L 158.86745,111.64216 L 154.10785,111.64216 L 145.61639,102.02703 L 144.67543,102.97256 L 144.67543,111.64216 L 141.0806,111.64216 L 141.0806,74.583938 L 144.67543,74.583938 L 144.67543,98.345416"
       id="path51"
       style="fill:#231f20;fill-opacity:1;fill-rule:nonzero;stroke:none" />
    <path
       d="M 234.55977,123.50006 L 230.96495,123.50006 L 230.96495,108.67769 L 230.87816,108.67769 C 229.16982,110.96613 226.47484,112.22683 223.64283,112.22683 C 217.31192,112.22683 213.49327,107.14749 213.49327,101.17286 C 213.49327,95.289586 217.35303,89.945309 223.60172,89.945309 C 226.47484,89.945309 229.12414,91.201442 230.87816,93.535567 L 230.96495,93.535567 L 230.96495,90.529982 L 234.55977,90.529982 L 234.55977,123.50006 z M 217.17489,100.85768 C 217.17489,104.9915 219.60037,108.90151 224.09504,108.90151 C 228.72218,108.90151 231.14766,105.17421 231.14766,100.90336 C 231.14766,96.682752 228.49379,93.266069 224.04936,93.266069 C 219.86986,93.266069 217.17489,96.906572 217.17489,100.85768"
       id="path53"
       style="fill:#231f20;fill-opacity:1;fill-rule:nonzero;stroke:none" />
    <path
       d="M 264.07206,102.29653 C 264.07206,105.84568 264.47859,108.90151 268.83623,108.90151 C 273.19387,108.90151 273.59584,105.84568 273.59584,102.29653 L 273.59584,90.529982 L 277.19066,90.529982 L 277.19066,102.70306 C 277.19066,108.31683 275.08036,112.22683 268.83623,112.22683 C 262.59211,112.22683 260.4818,108.31683 260.4818,102.70306 L 260.4818,90.529982 L 264.07206,90.529982 L 264.07206,102.29653"
       id="path55"
       style="fill:#231f20;fill-opacity:1;fill-rule:nonzero;stroke:none" />
    <path
       d="M 322.5622,111.64216 L 318.96738,111.64216 L 318.96738,108.72336 L 318.88059,108.72336 C 317.03522,111.05749 314.56406,112.22683 311.59958,112.22683 C 305.40114,112.22683 301.49114,106.96934 301.49114,101.13175 C 301.49114,95.111443 305.30978,89.945309 311.64526,89.945309 C 314.51838,89.945309 317.12657,91.292798 318.88059,93.535567 L 318.96738,93.535567 L 318.96738,90.529982 L 322.5622,90.529982 L 322.5622,111.64216 z M 305.17732,100.85768 C 305.17732,104.9915 307.6028,108.90151 312.0929,108.90151 C 316.72004,108.90151 319.14552,105.17421 319.14552,100.90336 C 319.14552,96.682752 316.49622,93.266069 312.04722,93.266069 C 307.87229,93.266069 305.17732,96.906572 305.17732,100.85768"
       id="path57"
       style="fill:#231f20;fill-opacity:1;fill-rule:nonzero;stroke:none" />
    <path
       d="M 348.66237,111.64216 L 352.25546,111.64216 L 352.25546,74.582568 L 348.66237,74.582568 L 348.66237,111.64216 z"
       id="path59"
       style="fill:#231f20;fill-opacity:1;fill-rule:nonzero;stroke:none" />
    <path
       d="M 383.51894,82.577515 C 383.51894,84.011791 382.34959,85.140027 380.95643,85.140027 C 379.56783,85.140027 378.39848,84.011791 378.39848,82.577515 C 378.39848,81.184349 379.56783,80.015003 380.95643,80.015003 C 382.34959,80.015003 383.51894,81.184349 383.51894,82.577515 z M 382.75612,111.64216 L 379.1613,111.64216 L 379.1613,90.529982 L 382.75612,90.529982 L 382.75612,111.64216"
       id="path61"
       style="fill:#231f20;fill-opacity:1;fill-rule:nonzero;stroke:none" />
    <path
       d="M 413.57022,111.64216 L 409.97539,111.64216 L 409.97539,93.850742 L 407.77373,93.850742 L 407.77373,90.529982 L 409.97539,90.529982 L 409.97539,82.938368 L 413.57022,82.938368 L 413.57022,90.529982 L 417.34319,90.529982 L 417.34319,93.850742 L 413.57022,93.850742 L 413.57022,111.64216"
       id="path63"
       style="fill:#231f20;fill-opacity:1;fill-rule:nonzero;stroke:none" />
    <path
       d="M 436.61457,90.529982 L 440.79407,90.529982 L 448.25322,105.66753 L 455.07745,90.529982 L 459.1656,90.529982 L 443.5804,123.50006 L 439.49226,123.50006 L 446.31649,109.66432 L 436.61457,90.529982"
       id="path65"
       style="fill:#231f20;fill-opacity:1;fill-rule:nonzero;stroke:none" />
  </g>
</svg>
