<?xml version="1.0" encoding="UTF-8" standalone="no"?>
<!-- Created with Inkscape (http://www.inkscape.org/) -->

<svg
   xmlns:dc="http://purl.org/dc/elements/1.1/"
   xmlns:cc="http://creativecommons.org/ns#"
   xmlns:rdf="http://www.w3.org/1999/02/22-rdf-syntax-ns#"
   xmlns:svg="http://www.w3.org/2000/svg"
   xmlns="http://www.w3.org/2000/svg"
   xmlns:sodipodi="http://sodipodi.sourceforge.net/DTD/sodipodi-0.dtd"
   xmlns:inkscape="http://www.inkscape.org/namespaces/inkscape"
   width="289.27884"
   height="79.999985"
   viewBox="0 0 76.538358 21.166663"
   version="1.1"
   id="svg11641"
   inkscape:version="0.92.1 r15371"
   sodipodi:docname="Murata Machinery company logo.svg">
  <defs
     id="defs11635" />
  <sodipodi:namedview
     id="base"
     pagecolor="#ffffff"
     bordercolor="#666666"
     borderopacity="1.0"
     inkscape:pageopacity="0.0"
     inkscape:pageshadow="2"
     inkscape:zoom="1"
     inkscape:cx="199.63058"
     inkscape:cy="-3.4259462"
     inkscape:document-units="mm"
     inkscape:current-layer="layer1"
     showgrid="false"
     units="px"
     fit-margin-top="5"
     fit-margin-bottom="5"
     fit-margin-right="5"
     fit-margin-left="5"
     inkscape:window-width="1280"
     inkscape:window-height="972"
     inkscape:window-x="-8"
     inkscape:window-y="-8"
     inkscape:window-maximized="1" />
  <metadata
     id="metadata11638">
    <rdf:RDF>
      <cc:Work
         rdf:about="">
        <dc:format>image/svg+xml</dc:format>
        <dc:type
           rdf:resource="http://purl.org/dc/dcmitype/StillImage" />
        <dc:title></dc:title>
      </cc:Work>
    </rdf:RDF>
  </metadata>
  <g
     inkscape:label="Layer 1"
     inkscape:groupmode="layer"
     id="layer1"
     transform="translate(-53.014409,-126.76021)">
    <path
       inkscape:connector-curvature="0"
       style="fill:#517fbf;fill-opacity:1;fill-rule:nonzero;stroke:none;stroke-width:0.53677493"
       d="m 68.073316,128.08313 c -2.845331,0 -5.164365,1.79904 -6.158236,4.29001 h -7.577754 v 13.97291 h 4.126457 v -9.97646 h 4.281618 v 9.97646 h 4.14533 v -8.90919 c 0,-0.51581 -0.195001,-0.93936 -0.467581,-1.24759 -0.400486,-0.42355 -0.645809,-0.99596 -0.645809,-1.62709 0,-1.3084 1.060968,-2.36726 2.367263,-2.36726 1.308389,0 2.369358,1.05886 2.369358,2.36726 0,0.63741 -0.253712,1.18257 -0.662579,1.60823 -1.146938,1.14064 0.496935,1.62291 0.496935,3.17661 l -0.0021,6.99903 h 4.23335 v -11.77339 c 0,-3.705 -2.885165,-6.48953 -6.506298,-6.48953"
       id="path4735" />
    <path
       inkscape:connector-curvature="0"
       style="fill:#517fbf;fill-opacity:1;fill-rule:nonzero;stroke:none;stroke-width:0.53677493"
       d="m 87.376242,136.2375 v 10.12534 h 1.983555 v -10.0939 c 0,-1.25177 0.576609,-1.90596 1.941611,-1.90596 v -1.98565 c -2.45742,0 -3.925166,1.64388 -3.925166,3.86017"
       id="path4737" />
    <path
       inkscape:connector-curvature="0"
       style="fill:#517fbf;fill-opacity:1;fill-rule:nonzero;stroke:none;stroke-width:0.53677493"
       d="m 83.358819,142.70605 c 0,1.1113 -1.232907,1.87872 -2.35678,1.87872 -1.123872,0 -2.356774,-0.76742 -2.356774,-1.87872 v -10.33291 h -1.954199 v 10.20292 c 0,2.17436 1.752908,4.0279 4.310973,4.0279 2.558071,0 4.310974,-1.85354 4.310974,-4.0279 v -10.20292 h -1.954194 v 10.33291"
       id="path4739" />
    <path
       inkscape:connector-curvature="0"
       style="fill:#517fbf;fill-opacity:1;fill-rule:nonzero;stroke:none;stroke-width:0.53677493"
       d="m 97.805608,144.36041 h -2.59371 c -0.979193,0 -1.692096,-0.72338 -1.692096,-1.70049 v -1.16581 c 0,-0.97919 0.868065,-1.6858 1.845169,-1.6858 l 4.14532,0.004 v 2.73211 c 0,0.97709 -0.72758,1.81581 -1.704683,1.81581 z m -0.142564,-11.98098 h -4.361299 v 1.99613 h 4.560493 c 0.786283,0 1.641771,0.86807 1.641771,1.84725 l 0.0044,1.62292 h -4.084526 c -2.285486,0 -3.960815,1.85774 -3.960815,3.65048 v 1.09243 c 0,2.0779 1.625006,3.7742 3.702909,3.7742 h 2.641939 c 2.233074,0 3.700814,-1.97727 3.700814,-4.02373 v -6.02613 c 0,-2.19532 -1.748706,-3.93355 -3.845486,-3.93355"
       id="path4741" />
    <path
       inkscape:connector-curvature="0"
       style="fill:#517fbf;fill-opacity:1;fill-rule:nonzero;stroke:none;stroke-width:0.53677493"
       d="m 105.65595,129.50475 h -1.95839 v 16.85389 h 1.95839 v -12.10679 h 2.60419 v -1.87871 h -2.60419 v -2.86839"
       id="path4743" />
    <path
       inkscape:connector-curvature="0"
       style="fill:#517fbf;fill-opacity:1;fill-rule:nonzero;stroke:none;stroke-width:0.53677493"
       d="m 123.98807,144.36251 c -0.97919,0 -1.7571,-0.74855 -1.7571,-1.72565 v -6.5084 c 0,-0.97919 0.77791,-1.75709 1.7571,-1.75709 h 4.23548 v -1.99194 H 124.29 c -2.51193,0 -4.05097,2.00661 -4.05097,4.23969 v 5.48515 c 0,2.57695 1.55581,4.26067 4.22921,4.26067 h 3.76161 v -2.00243 h -4.24178"
       id="path4745" />
    <path
       inkscape:connector-curvature="0"
       style="fill:#517fbf;fill-opacity:1;fill-rule:nonzero;stroke:none;stroke-width:0.53677493"
       d="m 116.77515,136.73024 v 0.18871 c 0,0.9792 -0.88484,1.63758 -1.86194,1.63758 l -4.1558,-0.004 0.002,-2.24145 c 0,-0.97919 0.95613,-1.94371 1.93532,-1.94371 h 2.38613 c 0.97919,0 1.6942,0.56192 1.6942,1.54113 z m -1.7592,-4.36129 h -2.58951 c -1.68371,0 -3.65887,1.70468 -3.65887,3.92307 v 6.21485 c 0,2.08 1.74871,3.85597 3.84549,3.85597 h 5.02178 v -2.00453 h -5.01969 c -0.7884,0 -1.86194,-0.92887 -1.86194,-1.90806 l 0.002,-1.97307 4.24388,-0.002 c 2.18484,0 3.71968,-1.69421 3.71968,-3.48694 v -0.9813 c 0,-2.0779 -1.6229,-3.6379 -3.70291,-3.6379"
       id="path4747" />
  </g>
</svg>
